# Blender 4.1.1
# www.blender.org
mtllib Gun.mtl
o Gun.001
v 0.012296 0.050000 -0.041520
v 0.009964 -0.050000 -0.013664
v 0.012296 0.050000 0.021109
v 0.012296 -0.018644 0.040238
v 0.012296 0.016911 -0.031079
v 0.012296 0.027287 0.019125
v -0.012306 -0.018644 0.040238
v -0.012306 0.027287 0.019125
v 0.012296 -0.054470 0.026780
v 0.009964 -0.077659 -0.001407
v 0.009964 -0.063371 -0.069024
v -0.009974 -0.063371 -0.069024
v 0.009964 -0.088318 -0.075996
v 0.009964 -0.035613 -0.100390
v 0.009964 -0.050947 -0.122399
v 0.020156 0.072433 -0.041520
v 0.020156 0.072433 0.021109
v 0.011295 0.120503 -0.041520
v 0.011295 0.120503 0.021109
v -0.020166 0.050000 -0.066567
v 0.020156 0.050000 -0.066567
v 0.020156 0.072433 -0.066567
v 0.011295 0.120503 -0.066567
v 0.020156 0.039773 -0.120674
v -0.011667 0.085891 -0.225364
v 0.020156 0.067398 -0.134026
v -0.011295 0.120503 -0.115639
v 0.011295 0.120503 -0.115639
v 0.020156 0.050000 -0.209694
v 0.020156 0.067398 -0.186789
v -0.011295 0.120503 -0.209694
v 0.011295 0.120503 -0.209694
v 0.011667 0.085891 -0.225364
v -0.011667 0.107044 -0.225364
v 0.011667 0.107044 -0.225364
v 0.011667 0.085891 -0.293498
v -0.011667 0.107044 -0.293498
v 0.011667 0.107044 -0.293498
v 0.008675 0.050000 0.042072
v 0.020156 0.075095 0.062779
v -0.020166 0.075095 0.062779
v -0.020166 0.125669 0.099451
v 0.020156 0.125669 0.099451
v 0.020156 0.008592 -0.134026
v 0.020156 0.014206 -0.066567
v 0.020156 0.008592 -0.186789
v 0.009964 -0.017684 -0.112881
v -0.009974 -0.017684 -0.112881
v 0.009964 -0.033017 -0.134890
v -0.009974 -0.033017 -0.134890
v 0.020156 0.100653 0.095773
v -0.020166 0.100653 0.095773
v 0.011295 0.112220 0.060708
v -0.011295 0.112220 0.060708
v 0.017800 0.163833 0.059973
v -0.017810 0.154676 0.086284
v 0.017800 0.154676 0.086284
v 0.020156 0.126616 0.060806
v -0.017810 0.163833 0.059973
v -0.020166 0.126616 0.060806
v 0.017800 0.164853 -0.003413
v 0.020156 0.127630 -0.003923
v 0.011774 0.158627 -0.009226
v 0.011774 0.139232 -0.009301
v -0.011774 0.158627 -0.009226
v 0.011774 0.159475 -0.089385
v 0.011774 0.140079 -0.089460
v 0.009964 -0.001026 -0.147763
v 0.020156 0.072433 -0.115639
v 0.020156 0.072433 -0.209694
v 0.020156 0.050000 -0.115639
v 0.020156 0.039773 -0.204660
v 0.009964 -0.001026 -0.115639
v 0.020156 0.003557 -0.205386
v 0.033522 0.039773 -0.120674
v 0.033522 0.039773 -0.204660
v 0.033522 0.067398 -0.134026
v 0.033522 0.067398 -0.186789
v 0.033522 0.008592 -0.134026
v 0.033522 0.008592 -0.186789
v -0.012306 0.050000 -0.041520
v -0.009974 -0.050000 -0.013664
v -0.012306 0.050000 0.021109
v -0.012306 0.016911 -0.031079
v -0.012306 -0.054470 0.026780
v -0.009974 -0.077659 -0.001407
v -0.009974 -0.088318 -0.075996
v -0.009974 -0.035613 -0.100390
v -0.009974 -0.050947 -0.122399
v -0.020166 0.072433 -0.041520
v -0.020166 0.072433 0.021109
v -0.011295 0.120503 -0.041520
v -0.011295 0.120503 0.021109
v -0.020166 0.072433 -0.066567
v -0.011295 0.120503 -0.066567
v -0.020166 0.039773 -0.120674
v -0.020166 0.067398 -0.134026
v -0.020166 0.050000 -0.209694
v -0.020166 0.067398 -0.186789
v -0.011667 0.085891 -0.293498
v -0.008685 0.050000 0.042072
v -0.020166 0.008592 -0.134026
v -0.020166 0.014206 -0.066567
v -0.020166 0.008592 -0.186789
v -0.017810 0.164853 -0.003413
v -0.020166 0.127630 -0.003923
v -0.011774 0.139232 -0.009301
v -0.011774 0.159475 -0.089385
v -0.011774 0.140079 -0.089460
v -0.009974 -0.001026 -0.115639
v -0.009974 -0.001026 -0.147763
v -0.020166 0.072433 -0.115639
v -0.020166 0.072433 -0.209694
v -0.020166 0.050000 -0.115639
v -0.020166 0.039773 -0.204660
v -0.020166 0.003557 -0.205386
v -0.033522 0.039773 -0.120674
v -0.033522 0.039773 -0.204660
v -0.033522 0.067398 -0.134026
v -0.033522 0.067398 -0.186789
v -0.033522 0.008592 -0.134026
v -0.033522 0.008592 -0.186789
vn 0.9983 0.0011 -0.0575
vn 1.0000 -0.0000 -0.0000
vn -0.0000 -0.3009 -0.9537
vn -0.0000 -0.2519 -0.9678
vn 0.9996 -0.0249 -0.0124
vn -0.0000 0.4177 0.9086
vn -0.0000 -0.0870 0.9962
vn 0.9734 -0.1705 0.1527
vn -0.0000 -0.7723 0.6353
vn -0.9983 0.0011 -0.0575
vn -0.0000 -0.3517 0.9361
vn -1.0000 -0.0000 -0.0000
vn -0.0000 0.7489 0.6627
vn -0.0000 0.9721 -0.2348
vn -0.0000 -0.9899 0.1415
vn -0.0000 -0.7788 -0.6272
vn -0.0000 0.9788 0.2047
vn 0.9437 -0.3307 -0.0000
vn 0.9789 0.2040 0.0141
vn -0.0000 1.0000 -0.0000
vn 0.9834 0.1813 -0.0000
vn -0.0000 -1.0000 -0.0000
vn -0.0000 0.5432 -0.8396
vn -0.0000 -0.0000 -1.0000
vn -0.0000 0.7586 -0.6516
vn -0.0000 -0.3936 0.9193
vn 0.9896 -0.1162 -0.0847
vn 0.9607 0.1230 -0.2488
vn -0.0000 -0.7586 -0.6516
vn 0.9606 0.2198 -0.1702
vn -0.0000 -0.6365 0.7713
vn 0.9130 -0.4020 0.0699
vn -0.0000 -0.9550 0.2964
vn -0.0000 -0.9969 -0.0793
vn -0.0000 -0.0000 1.0000
vn -0.0000 -0.0924 -0.9957
vn 0.4101 -0.9121 -0.0000
vn -0.0000 -0.5716 -0.8205
vn -0.0000 0.5716 0.8205
vn -0.0000 0.0068 -1.0000
vn -0.0000 -0.7906 0.6124
vn 0.9966 0.0818 0.0020
vn 0.9675 -0.2031 -0.1508
vn -0.0000 -0.1455 0.9894
vn -0.0000 0.9444 0.3287
vn -0.0000 -0.9999 -0.0157
vn -0.0000 0.4133 0.9106
vn 0.9977 0.0636 0.0222
vn 0.6209 0.0339 -0.7831
vn -0.0000 0.9999 0.0161
vn 0.9980 0.0632 0.0010
vn -0.0000 0.9999 0.0106
vn -0.0000 0.6825 -0.7309
vn -0.0000 -0.4205 -0.9073
vn -0.0000 0.0038 -1.0000
vn -0.0000 -0.9999 -0.0106
vn -0.0000 0.1633 0.9866
vn -0.0000 -0.3733 -0.9277
vn 0.8200 -0.5710 0.0403
vn 0.9009 -0.1761 0.3966
vn -0.0000 -0.4973 -0.8676
vn -0.0000 0.4352 0.9003
vn -0.9996 -0.0249 -0.0124
vn -0.9734 -0.1705 0.1527
vn -0.9437 -0.3307 -0.0000
vn -0.9788 0.2042 0.0141
vn -0.9834 0.1815 -0.0000
vn -0.9896 -0.1162 -0.0847
vn -0.9606 0.1231 -0.2491
vn -0.9605 0.2200 -0.1704
vn -0.9130 -0.4020 0.0699
vn -0.4101 -0.9121 -0.0000
vn -0.9966 0.0818 0.0020
vn -0.9674 -0.2033 -0.1509
vn -0.9977 0.0636 0.0222
vn -0.6204 0.0339 -0.7836
vn -0.9980 0.0632 0.0010
vn -0.8200 -0.5710 0.0403
vn -0.9009 -0.1761 0.3966
vt 0.201187 0.983070
vt 0.263687 0.768226
vt 0.172908 0.451372
vt 0.929440 0.692767
vt 0.929440 0.830894
vt 0.996268 0.830894
vt 0.996268 0.692767
vt 0.926339 0.692767
vt 0.926339 0.536861
vt 0.993167 0.536861
vt 0.993167 0.692767
vt 0.828399 0.529960
vt 0.945073 0.529960
vt 0.945073 0.189288
vt 0.828399 0.189288
vt 0.964604 0.065394
vt 0.847930 0.065394
vt 0.847930 0.171156
vt 0.964604 0.171156
vt 0.470538 0.288344
vt 0.470538 0.182581
vt 0.811210 0.182581
vt 0.811210 0.288344
vt 0.263687 0.768166
vt -0.016814 0.256469
vt 0.176407 0.261202
vt 0.049021 0.401505
vt 0.250810 0.072458
vt 0.428863 0.072458
vt 0.428863 0.204013
vt 0.250810 0.204013
vt 0.440642 0.199845
vt 0.239031 0.199845
vt 0.239031 0.523494
vt 0.440642 0.523494
vt 0.121844 0.205688
vt 0.323454 0.205688
vt 0.311676 0.350723
vt 0.133623 0.350723
vt 0.180575 0.447292
vt 0.311676 0.401611
vt 0.323454 0.215492
vt 0.281543 0.273502
vt 0.281543 0.370481
vt 0.428863 0.520942
vt 0.250810 0.520942
vt 0.500057 0.266273
vt 0.497505 0.452392
vt 0.343491 0.003134
vt 0.461231 0.003134
vt 0.461231 0.403927
vt 0.343491 0.403927
vt 0.133623 0.401611
vt 0.163804 0.370481
vt 0.121844 0.215492
vt 0.163804 0.273502
vt 0.007554 0.206749
vt 0.125293 0.206749
vt 0.125293 0.109770
vt 0.007554 0.109770
vt -0.035929 0.507199
vt -0.035556 0.410221
vt 0.365238 0.414458
vt 0.364865 0.511436
vt 0.461231 0.003507
vt 0.343491 0.003507
vt 0.343491 0.404300
vt 0.461231 0.404300
vt 0.973036 0.726871
vt 0.553106 0.726871
vt 0.619867 0.570965
vt 0.883680 0.570965
vt 0.619867 0.864998
vt 0.883680 0.864998
vt 0.932540 0.967391
vt 0.932540 0.703578
vt 0.999368 0.703578
vt 0.999368 0.967391
vt 0.929440 0.536861
vt 0.996268 0.536861
vt 0.600798 0.787289
vt 0.600798 1.051101
vt 0.667626 1.051101
vt 0.667626 0.787289
vt 0.926339 0.830894
vt 0.993167 0.830894
vt 0.569709 0.689667
vt 0.502930 0.689667
vt 0.502930 0.827793
vt 0.569709 0.827793
vt 0.569709 0.680365
vt 0.502930 0.680365
vt 0.502930 0.524459
vt 0.569709 0.524459
vt 0.049021 0.401505
vt 0.569709 0.970491
vt 0.502930 0.970491
vt 0.502930 0.706678
vt 0.569709 0.706678
vt 0.569709 0.533760
vt 0.502930 0.533760
vt 0.569709 0.818492
vt 0.502930 0.818492
s 0
usemtl Gun
f 2/1/1 4/1/1 9/1/1 10/1/1
f 5/1/2 1/1/2 3/1/2 6/1/2
f 84/1/3 81/1/3 1/1/3 5/1/3
f 82/1/4 84/1/4 5/1/4 2/1/4
f 2/1/5 5/1/5 6/1/5 4/1/5
f 4/1/6 6/1/6 8/1/6 7/1/6
f 6/1/7 3/1/7 83/1/7 8/1/7
f 16/2/8 1/2/8 21/2/8 22/2/8
f 86/1/9 10/1/9 9/1/9 85/1/9
f 7/1/10 82/1/10 86/1/10 85/1/10
f 4/1/11 7/1/11 85/1/11 9/1/11
f 86/3/12 82/3/12 12/3/12 87/3/12
f 12/3/13 11/3/13 14/3/13 88/3/13
f 82/3/14 2/3/14 11/3/14 12/3/14
f 10/3/15 86/3/15 87/3/15 13/3/15
f 2/3/2 10/3/2 13/3/2 11/3/2
f 87/3/12 12/3/12 88/3/12 89/3/12
f 13/3/16 87/3/16 89/3/16 15/3/16
f 11/3/2 13/3/2 15/3/2 14/3/2
f 19/2/17 93/2/17 54/2/17 53/2/17
f 3/2/18 1/2/18 16/2/18 17/2/18
f 17/2/19 19/2/19 53/2/19 40/2/19
f 18/2/20 92/2/20 93/2/20 19/2/20
f 17/2/21 16/2/21 18/2/21 19/2/21
f 92/2/20 18/2/20 23/2/20 95/2/20
f 23/2/21 22/2/21 69/2/21 28/2/21
f 95/2/20 23/2/20 28/2/20 27/2/20
f 18/2/21 16/2/21 22/2/21 23/2/21
f 1/2/22 81/2/22 20/2/22 21/2/22
f 28/2/21 69/2/21 70/2/21 32/2/21
f 27/2/20 28/2/20 32/2/20 31/2/20
f 22/2/2 21/2/2 71/2/2 69/2/2
f 72/4/23 30/5/23 78/6/23 76/7/23
f 29/2/24 98/2/24 113/2/24 70/2/24
f 31/2/25 32/2/25 35/2/25 34/2/25
f 24/8/26 44/9/26 79/10/26 75/11/26
f 71/2/27 21/2/27 45/2/27 73/2/27
f 33/12/22 25/13/22 100/14/22 36/15/22
f 32/2/28 70/2/28 33/2/28 35/2/28
f 70/2/29 113/2/29 25/2/29 33/2/29
f 36/16/24 100/17/24 37/18/24 38/19/24
f 35/20/2 33/21/2 36/22/2 38/23/2
f 34/13/20 35/12/20 38/15/20 37/14/20
f 40/2/30 53/2/30 51/2/30
f 101/2/31 39/2/31 40/2/31 41/2/31
f 3/2/32 17/2/32 40/2/32 39/2/32
f 83/2/22 3/2/22 39/24/22 101/2/22
f 45/2/33 103/2/33 110/2/33 73/2/33
f 116/2/34 74/2/34 68/2/34 111/2/34
f 21/2/35 20/2/35 103/2/35 45/2/35
f 98/2/36 29/2/36 74/2/36 116/2/36
f 74/2/37 73/2/37 68/2/37
f 89/3/12 88/3/12 48/3/12 50/3/12
f 47/3/2 49/3/2 68/3/2 73/3/2
f 15/3/38 89/3/38 50/3/38 49/3/38
f 14/3/2 15/3/2 49/3/2 47/3/2
f 88/3/39 14/3/39 47/3/39 48/3/39
f 53/2/40 54/2/40 60/2/40 58/2/40
f 41/24/41 40/24/41 51/24/41 52/24/41
f 43/25/42 58/26/42 57/27/42
f 51/2/43 53/2/43 58/2/43 43/2/43
f 52/2/44 51/2/44 43/2/44 42/2/44
f 56/28/45 57/29/45 55/30/45 59/31/45
f 58/32/46 60/33/46 106/34/46 62/35/46
f 42/36/47 43/37/47 57/38/47 56/39/47
f 57/27/48 58/26/48 55/40/48
f 61/41/49 62/42/49 64/43/49 63/44/49
f 59/31/50 55/30/50 61/45/50 105/46/50
f 55/40/51 58/26/51 62/47/51 61/48/51
f 65/49/52 63/50/52 66/51/52 108/52/52
f 105/53/53 61/41/53 63/44/53 65/54/53
f 62/42/54 106/55/54 107/56/54 64/43/54
f 108/57/55 66/58/55 67/59/55 109/60/55
f 63/61/2 64/62/2 67/63/2 66/64/2
f 64/65/56 107/66/56 109/67/56 67/68/56
f 48/3/57 47/3/57 73/3/57 110/3/57
f 50/3/12 48/3/12 110/3/12 111/3/12
f 49/3/58 50/3/58 111/3/58 68/3/58
f 26/2/2 30/2/2 70/2/2 69/2/2
f 24/2/2 26/2/2 69/2/2 71/2/2
f 30/2/2 72/2/2 29/2/2 70/2/2
f 46/2/59 44/2/59 73/2/59 74/2/59
f 44/2/60 24/2/60 71/2/60 73/2/60
f 72/2/2 46/2/2 74/2/2 29/2/2
f 76/69/2 75/70/2 79/71/2 80/72/2
f 77/73/2 75/70/2 76/69/2 78/74/2
f 30/75/20 26/76/20 77/77/20 78/78/20
f 46/79/61 72/4/61 76/7/61 80/80/61
f 44/81/22 46/82/22 80/83/22 79/84/22
f 26/85/62 24/8/62 75/11/62 77/86/62
f 84/1/12 8/1/12 83/1/12 81/1/12
f 82/1/63 7/1/63 8/1/63 84/1/63
f 90/2/64 94/2/64 20/2/64 81/2/64
f 83/2/65 91/2/65 90/2/65 81/2/65
f 91/2/66 41/2/66 54/2/66 93/2/66
f 91/2/67 93/2/67 92/2/67 90/2/67
f 95/2/67 27/2/67 112/2/67 94/2/67
f 92/2/67 95/2/67 94/2/67 90/2/67
f 27/2/67 31/2/67 113/2/67 112/2/67
f 94/2/12 112/2/12 114/2/12 20/2/12
f 115/87/23 118/88/23 120/89/23 99/90/23
f 96/91/26 117/92/26 121/93/26 102/94/26
f 114/2/68 110/2/68 103/2/68 20/2/68
f 31/2/69 34/2/69 25/2/69 113/2/69
f 34/20/12 37/23/12 100/22/12 25/21/12
f 41/2/70 52/2/70 54/2/70
f 83/2/71 101/2/71 41/2/71 91/2/71
f 116/2/72 111/2/72 110/2/72
f 42/25/73 56/95/73 60/26/73
f 52/2/74 42/2/74 60/2/74 54/2/74
f 56/95/75 59/40/75 60/26/75
f 105/53/76 65/54/76 107/56/76 106/55/76
f 59/40/77 105/48/77 106/47/77 60/26/77
f 65/61/12 108/64/12 109/63/12 107/62/12
f 97/2/12 112/2/12 113/2/12 99/2/12
f 96/2/12 114/2/12 112/2/12 97/2/12
f 99/2/12 113/2/12 98/2/12 115/2/12
f 104/2/78 116/2/78 110/2/78 102/2/78
f 102/2/79 110/2/79 114/2/79 96/2/79
f 115/2/12 98/2/12 116/2/12 104/2/12
f 118/69/12 122/72/12 121/71/12 117/70/12
f 119/73/12 120/74/12 118/69/12 117/70/12
f 99/96/20 120/97/20 119/98/20 97/99/20
f 104/100/61 122/101/61 118/88/61 115/87/61
f 102/99/22 121/98/22 122/97/22 104/96/22
f 97/102/62 119/103/62 117/92/62 96/91/62
