# Blender 4.1.1
# www.blender.org
mtllib Hall.mtl
o Hallway
v -1.250000 0.000000 1.000000
v 0.250000 0.000000 1.000000
v -1.250000 0.000000 -1.000000
v 0.250000 0.000000 -1.000000
v -1.250000 0.000000 0.000000
v 0.250000 0.000000 0.000000
v -0.250000 0.000000 1.000000
v -0.250000 0.000000 -1.000000
v -0.250000 0.000000 0.000000
v -1.250000 2.500000 1.000000
v -1.250000 2.500000 -1.000000
v -1.250000 1.000000 1.000000
v -1.250000 1.000000 -1.000000
v 1.250000 2.500000 -1.000000
v 1.250000 2.500000 1.000000
v 1.250000 1.000000 -1.000000
v 1.250000 1.000000 1.000000
v 1.250000 0.000000 1.000000
v 1.250000 0.000000 -1.000000
v -1.250000 0.000000 -1.000000
v -1.250000 0.000000 1.000000
v 1.250000 2.500000 1.000000
v 1.250000 2.500000 -1.000000
v 1.250000 0.000000 1.000000
v 1.250000 0.000000 -1.000000
v 1.250000 0.000000 0.000000
v 0.750000 2.500000 1.000000
v -0.750000 2.500000 1.000000
v -0.750000 2.500000 -1.000000
v 0.750000 2.500000 -1.000000
v 0.750000 2.650000 1.000000
v -0.750000 2.650000 1.000000
v -0.750000 2.650000 -1.000000
v 0.750000 2.650000 -1.000000
vn -0.0000 1.0000 -0.0000
vn 1.0000 -0.0000 -0.0000
vn -1.0000 -0.0000 -0.0000
vn -0.0000 -1.0000 -0.0000
vt 0.476562 0.500000
vt 0.976562 0.500000
vt 0.976562 -0.500000
vt 0.476562 -0.500000
vt 0.476562 1.500000
vt 0.976562 1.500000
vt 0.000000 -0.500000
vt 1.000000 -0.500000
vt 1.000000 0.500000
vt 0.000000 0.500000
vt 1.000000 1.500000
vt 0.000000 1.500000
vt -0.500000 1.250000
vt -0.500000 -0.250000
vt 1.500000 -0.250000
vt 1.500000 1.250000
vt -0.500000 0.886719
vt 1.500000 0.886719
vt 1.500000 -0.113281
vt -0.500000 -0.113281
s 0
usemtl Floor
f 9/1/1 6/2/1 4/3/1 8/4/1
f 7/5/1 2/6/1 6/2/1 9/1/1
f 1/7/1 7/8/1 9/9/1 5/10/1
f 5/10/1 9/9/1 8/11/1 3/12/1
f 6/9/1 2/8/1 24/7/1 26/10/1
f 4/11/1 6/9/1 26/10/1 25/12/1
usemtl WallLow
f 17/17/3 16/18/3 19/19/3 18/20/3
f 13/18/2 12/17/2 21/20/2 20/19/2
usemtl WallTop
f 10/13/2 12/14/2 13/15/2 11/16/2
f 14/13/3 16/14/3 17/15/3 15/16/3
usemtl Ceiling
f 27/13/4 30/16/4 23/16/4 22/13/4
f 10/13/4 11/16/4 29/16/4 28/13/4
f 30/16/3 27/13/3 31/13/3 34/16/3
f 32/13/4 33/16/4 34/16/4 31/13/4
f 28/13/2 29/16/2 33/16/2 32/13/2
