# Blender 4.2.1 LTS
# www.blender.org
mtllib block1.mtl
o Cube
v -1.500000 -1.500000 1.500000
v -1.500000 1.500000 1.500000
v -1.500000 -1.500000 -1.500000
v -1.500000 1.500000 -1.500000
v 1.500000 -1.500000 1.500000
v 1.500000 1.500000 1.500000
v 1.500000 -1.500000 -1.500000
v 1.500000 1.500000 -1.500000
v -1.500000 -0.500000 1.500000
v -1.500000 0.500000 1.500000
v -1.500000 0.500000 -1.500000
v -1.500000 -0.500000 -1.500000
v 1.500000 0.500000 -1.500000
v 1.500000 -0.500000 -1.500000
v 1.500000 0.500000 1.500000
v 1.500000 -0.500000 1.500000
v -1.500000 -1.500000 -0.500000
v -1.500000 -1.500000 0.500000
v -1.500000 1.500000 0.500000
v -1.500000 1.500000 -0.500000
v 1.500000 -1.500000 0.500000
v 1.500000 -1.500000 -0.500000
v 1.500000 1.500000 -0.500000
v 1.500000 1.500000 0.500000
v 1.500000 -0.500000 -0.500000
v 1.500000 -0.500000 0.500000
v 1.500000 0.500000 -0.500000
v 1.500000 0.500000 0.500000
v -1.500000 -0.500000 0.500000
v -1.500000 -0.500000 -0.500000
v -1.500000 0.500000 0.500000
v -1.500000 0.500000 -0.500000
v 0.500000 -1.500000 -1.500000
v -0.500000 -1.500000 -1.500000
v -0.500000 1.500000 -1.500000
v 0.500000 1.500000 -1.500000
v -0.900000 -1.500000 1.500000
v 0.900000 -1.500000 1.500000
v 0.500000 1.500000 1.500000
v -0.500000 1.500000 1.500000
v 0.900000 -0.500000 1.500000
v -0.900000 -0.500000 1.500000
v 0.900000 1.200000 1.500000
v -0.900000 1.200000 1.500000
v -0.500000 -0.500000 -1.500000
v 0.500000 -0.500000 -1.500000
v -0.500000 0.500000 -1.500000
v 0.500000 0.500000 -1.500000
v -0.500000 1.500000 -0.500000
v 0.500000 1.500000 -0.500000
v -0.500000 1.500000 0.500000
v 0.500000 1.500000 0.500000
v 0.500000 -1.500000 -0.500000
v -0.500000 -1.500000 -0.500000
v 0.500000 -1.500000 0.500000
v -0.500000 -1.500000 0.500000
v -0.715489 -1.500000 1.600000
v 0.715489 -1.500000 1.600000
v 0.900000 -0.500000 1.600000
v -0.900000 -0.500000 1.600000
v 0.715489 1.015489 1.600000
v -0.715489 1.015489 1.600000
v -0.900000 -1.500000 1.600000
v 0.900000 -1.500000 1.600000
v 0.900000 1.200000 1.600000
v -0.900000 1.200000 1.600000
v 0.715489 -0.500000 1.600000
v -0.715489 -0.500000 1.600000
v 0.715489 -0.500000 1.300000
v -0.715489 -0.500000 1.300000
v -0.715489 -1.500000 1.300000
v 0.715489 -1.500000 1.300000
v 0.715489 1.015489 1.300000
v -0.715489 1.015489 1.300000
vn -1.0000 -0.0000 -0.0000
vn -0.0000 -0.0000 -1.0000
vn 1.0000 -0.0000 -0.0000
vn -0.0000 -0.0000 1.0000
vn -0.0000 -1.0000 -0.0000
vn -0.0000 1.0000 -0.0000
vt 0.416667 0.666667
vt 0.416667 0.750000
vt 0.500000 0.750000
vt 0.500000 0.666667
vt 0.166667 0.916667
vt 0.166667 1.000000
vt 0.250000 1.000000
vt 0.250000 0.916667
vt 0.583333 0.666667
vt 0.583333 0.750000
vt 0.800000 0.975000
vt 0.833333 1.000000
vt 0.750000 1.000000
vt 0.750000 0.916667
vt 0.416667 0.833333
vt 0.500000 0.833333
vt 0.450000 0.750000
vt 0.583333 0.833333
vt 0.800000 0.750000
vt 0.800000 0.833333
vt 0.750000 0.833333
vt 0.750000 0.750000
vt 0.583333 0.500000
vt 0.583333 0.583333
vt 0.500000 0.583333
vt 0.500000 0.500000
vt 0.166667 0.750000
vt 0.166667 0.833333
vt 0.250000 0.833333
vt 0.250000 0.750000
vt 0.416667 0.500000
vt 0.416667 0.583333
vt 0.250000 0.583333
vt 0.250000 0.666667
vt 0.333333 0.666667
vt 0.333333 0.583333
vt 0.250000 0.500000
vt 0.333333 0.500000
vt 0.750000 0.583333
vt 0.750000 0.666667
vt 0.666667 0.666667
vt 0.666667 0.583333
vt 0.750000 0.500000
vt 0.666667 0.500000
vt 0.583333 1.000000
vt 0.500000 1.000000
vt 0.500000 0.916667
vt 0.583333 0.916667
vt 0.416667 1.000000
vt 0.416667 0.916667
vt 0.666667 0.750000
vt 0.333333 0.750000
vt 0.333333 0.916667
vt 0.333333 0.833333
vt 0.333333 1.000000
vt 0.666667 0.916667
vt 0.666667 0.833333
vt 0.750000 0.833333
vt 0.666667 1.000000
vt 0.000000 0.833333
vt 0.000000 0.916667
vt 0.083333 0.916667
vt 0.083333 0.833333
vt 0.000000 0.750000
vt 0.083333 0.750000
vt 1.000000 0.833333
vt 1.000000 0.916667
vt 0.950000 0.975000
vt 0.950000 0.833333
vt 0.125000 0.737500
vt 0.125000 0.595833
vt 0.116667 0.595833
vt 0.116667 0.737500
vt 1.000000 0.750000
vt 0.950000 0.750000
vt 0.125000 0.512500
vt 0.116667 0.512500
vt 0.300000 0.750000
vt 1.000000 1.000000
vt 0.916667 1.000000
vt 0.000000 1.000000
vt 0.083333 1.000000
vt 0.116667 0.722124
vt 0.141667 0.595833
vt 0.141667 0.722124
vt 0.141667 0.512500
vt 0.934624 0.750000
vt 0.934624 0.833333
vt 0.815376 0.833333
vt 0.815376 0.750000
vt 0.934624 0.959624
vt 0.815376 0.959624
vt 0.065376 0.722124
vt 0.184624 0.722124
vt 0.200000 0.737500
vt 0.050000 0.737500
vt 0.184624 0.595833
vt 0.200000 0.595833
vt 0.065376 0.595833
vt 0.050000 0.595833
vt 0.184624 0.512500
vt 0.200000 0.512500
vt 0.065376 0.512500
vt 0.050000 0.512500
vt 0.184624 0.621369
vt 0.065376 0.621369
vt 0.065376 0.646369
vt 0.184624 0.646369
vt 0.565376 0.862500
vt 0.684624 0.862500
vt 0.684624 0.887500
vt 0.565376 0.887500
s 0
usemtl atlas
f 32/1/1 20/2/1 4/3/1 11/4/1
f 48/5/2 36/6/2 8/7/2 13/8/2
f 28/9/3 24/10/3 6/3/3 15/4/3
f 44/11/4 40/12/4 2/13/4 10/14/4
f 55/15/5 21/16/5 5/3/5 38/17/5
f 51/18/6 19/16/6 2/3/6 40/10/6
f 37/19/4 42/20/4 9/21/4 1/22/4
f 42/20/4 44/11/4 10/14/4 9/21/4
f 21/23/3 26/24/3 16/25/3 5/26/3
f 26/24/3 28/9/3 15/4/3 16/25/3
f 33/27/2 46/28/2 14/29/2 7/30/2
f 46/28/2 48/5/2 13/8/2 14/29/2
f 17/31/1 30/32/1 12/25/1 3/26/1
f 30/32/1 32/1/1 11/4/1 12/25/1
f 9/33/1 10/34/1 31/35/1 29/36/1
f 29/36/1 31/35/1 32/1/1 30/32/1
f 1/37/1 9/33/1 29/36/1 18/38/1
f 18/38/1 29/36/1 30/32/1 17/31/1
f 14/39/3 13/40/3 27/41/3 25/42/3
f 25/42/3 27/41/3 28/9/3 26/24/3
f 7/43/3 14/39/3 25/42/3 22/44/3
f 22/44/3 25/42/3 26/24/3 21/23/3
f 35/45/6 4/46/6 20/47/6 49/48/6
f 49/48/6 20/47/6 19/16/6 51/18/6
f 33/49/5 7/46/5 22/47/5 53/50/5
f 53/50/5 22/47/5 21/16/5 55/15/5
f 13/40/3 8/22/3 23/51/3 27/41/3
f 27/41/3 23/51/3 24/10/3 28/9/3
f 10/34/1 2/30/1 19/52/1 31/35/1
f 31/35/1 19/52/1 20/2/1 32/1/1
f 17/8/5 54/53/5 56/54/5 18/29/5
f 54/53/5 53/50/5 55/15/5 56/54/5
f 3/7/5 34/55/5 54/53/5 17/8/5
f 34/55/5 33/49/5 53/50/5 54/53/5
f 23/14/6 50/56/6 52/57/6 24/58/6
f 50/56/6 49/48/6 51/18/6 52/57/6
f 8/13/6 36/59/6 50/56/6 23/14/6
f 36/59/6 35/45/6 49/48/6 50/56/6
f 12/60/2 11/61/2 47/62/2 45/63/2
f 45/63/2 47/62/2 48/5/2 46/28/2
f 3/64/2 12/60/2 45/63/2 34/65/2
f 34/65/2 45/63/2 46/28/2 33/27/2
f 16/66/4 15/67/4 43/68/4 41/69/4
f 44/70/1 42/71/1 60/72/1 66/73/1
f 5/74/4 16/66/4 41/69/4 38/75/4
f 42/71/1 37/76/1 63/77/1 60/72/1
f 24/58/6 52/57/6 39/51/6 6/22/6
f 52/57/6 51/18/6 40/10/6 39/51/6
f 18/29/5 56/54/5 37/78/5 1/30/5
f 56/54/5 55/15/5 38/17/5 37/78/5
f 15/67/4 6/79/4 39/80/4 43/68/4
f 43/68/4 39/80/4 40/12/4 44/11/4
f 11/61/2 4/81/2 35/82/2 47/62/2
f 47/62/2 35/82/2 36/6/2 48/5/2
f 62/83/3 68/72/3 70/84/3 74/85/3
f 68/72/3 57/77/3 71/86/3 70/84/3
f 38/76/3 41/71/3 59/72/3 64/77/3
f 72/87/4 69/88/4 70/89/4 71/90/4
f 41/71/3 43/70/3 65/73/3 59/72/3
f 69/88/4 73/91/4 74/92/4 70/89/4
f 62/93/4 61/94/4 65/95/4 66/96/4
f 61/94/4 67/97/4 59/98/4 65/95/4
f 68/99/4 62/93/4 66/96/4 60/100/4
f 67/97/4 58/101/4 64/102/4 59/98/4
f 57/103/4 68/99/4 60/100/4 63/104/4
f 61/105/5 62/106/5 74/107/5 73/108/5
f 58/77/1 67/72/1 69/84/1 72/86/1
f 67/72/1 61/83/1 73/85/1 69/84/1
f 57/109/6 58/110/6 72/111/6 71/112/6
