# Blender 4.2.1 LTS
# www.blender.org
mtllib block1.mtl
o Cube
v -1.500000 -1.500000 1.500000
v -1.500000 1.500000 1.500000
v -1.500000 -1.500000 -1.500000
v -1.500000 1.500000 -1.500000
v 1.500000 -1.500000 1.500000
v 1.500000 1.500000 1.500000
v 1.500000 -1.500000 -1.500000
v 1.500000 1.500000 -1.500000
v -1.500000 -0.500000 1.500000
v -1.500000 0.500000 1.500000
v -1.500000 0.500000 -1.500000
v -1.500000 -0.500000 -1.500000
v 1.500000 0.500000 -1.500000
v 1.500000 -0.500000 -1.500000
v 1.500000 0.500000 1.500000
v 1.500000 -0.500000 1.500000
v -1.500000 -1.500000 -0.500000
v -1.500000 -1.500000 0.500000
v -1.500000 1.500000 0.500000
v -1.500000 1.500000 -0.500000
v 1.500000 -1.500000 0.500000
v 1.500000 -1.500000 -0.500000
v 1.500000 1.500000 -0.500000
v 1.500000 1.500000 0.500000
v 1.500000 -0.500000 -0.500000
v 1.500000 -0.500000 0.500000
v 1.500000 0.500000 -0.500000
v 1.500000 0.500000 0.500000
v -1.500000 -0.500000 0.500000
v -1.500000 -0.500000 -0.500000
v -1.500000 0.500000 0.500000
v -1.500000 0.500000 -0.500000
v 0.500000 -1.500000 -1.500000
v -0.500000 -1.500000 -1.500000
v -0.500000 1.500000 -1.500000
v 0.500000 1.500000 -1.500000
v -0.500000 -1.500000 1.500000
v 0.500000 -1.500000 1.500000
v 0.500000 1.500000 1.500000
v -0.500000 1.500000 1.500000
v 0.500000 -0.500000 1.500000
v -0.500000 -0.500000 1.500000
v 0.500000 0.500000 1.500000
v -0.500000 0.500000 1.500000
v -0.500000 -0.500000 -1.500000
v 0.500000 -0.500000 -1.500000
v -0.500000 0.500000 -1.500000
v 0.500000 0.500000 -1.500000
v -0.500000 1.500000 -0.500000
v 0.500000 1.500000 -0.500000
v -0.500000 1.500000 0.500000
v 0.500000 1.500000 0.500000
v 0.500000 -1.500000 -0.500000
v -0.500000 -1.500000 -0.500000
v 0.500000 -1.500000 0.500000
v -0.500000 -1.500000 0.500000
vn -1.0000 -0.0000 -0.0000
vn -0.0000 -0.0000 -1.0000
vn 1.0000 -0.0000 -0.0000
vn -0.0000 -0.0000 1.0000
vn -0.0000 -1.0000 -0.0000
vn -0.0000 1.0000 -0.0000
vt 0.166667 0.916667
vt 0.166667 1.000000
vt 0.250000 1.000000
vt 0.250000 0.916667
vt 0.083333 0.916667
vt 0.083333 1.000000
vt 0.000000 1.000000
vt 0.000000 0.916667
vt 0.416667 0.833333
vt 0.500000 0.833333
vt 0.500000 0.750000
vt 0.416667 0.750000
vt 0.583333 0.833333
vt 0.583333 0.750000
vt 0.083333 0.750000
vt 0.083333 0.833333
vt 0.000000 0.833333
vt 0.000000 0.750000
vt 0.166667 0.750000
vt 0.166667 0.833333
vt 0.250000 0.833333
vt 0.250000 0.750000
vt 0.083333 0.916667
vt 0.083333 0.833333
vt 0.083333 0.750000
vt 0.583333 1.000000
vt 0.500000 1.000000
vt 0.500000 0.916667
vt 0.583333 0.916667
vt 0.416667 1.000000
vt 0.416667 0.916667
vt 0.083333 1.000000
vt 0.333333 0.916667
vt 0.333333 0.833333
vt 0.333333 1.000000
vt 0.750000 0.916667
vt 0.666667 0.916667
vt 0.666667 0.833333
vt 0.750000 0.833333
vt 0.750000 1.000000
vt 0.666667 1.000000
vt 0.666667 0.750000
vt 0.750000 0.750000
vt 0.333333 0.750000
s 0
usemtl atlas
f 32/1/1 20/2/1 4/3/1 11/4/1
f 48/1/2 36/2/2 8/3/2 13/4/2
f 28/5/3 24/6/3 6/7/3 15/8/3
f 44/5/4 40/6/4 2/7/4 10/8/4
f 55/9/5 21/10/5 5/11/5 38/12/5
f 51/13/6 19/10/6 2/11/6 40/14/6
f 37/15/4 42/16/4 9/17/4 1/18/4
f 42/16/4 44/5/4 10/8/4 9/17/4
f 21/15/3 26/16/3 16/17/3 5/18/3
f 26/16/3 28/5/3 15/8/3 16/17/3
f 33/19/2 46/20/2 14/21/2 7/22/2
f 46/20/2 48/1/2 13/4/2 14/21/2
f 17/19/1 30/20/1 12/21/1 3/22/1
f 30/20/1 32/1/1 11/4/1 12/21/1
f 9/17/1 10/8/1 31/23/1 29/24/1
f 29/24/1 31/23/1 32/1/1 30/20/1
f 1/18/1 9/17/1 29/24/1 18/25/1
f 18/25/1 29/24/1 30/20/1 17/19/1
f 14/21/3 13/4/3 27/1/3 25/20/3
f 25/20/3 27/1/3 28/5/3 26/16/3
f 7/22/3 14/21/3 25/20/3 22/19/3
f 22/19/3 25/20/3 26/16/3 21/15/3
f 35/26/6 4/27/6 20/28/6 49/29/6
f 49/29/6 20/28/6 19/10/6 51/13/6
f 33/30/5 7/27/5 22/28/5 53/31/5
f 53/31/5 22/28/5 21/10/5 55/9/5
f 13/4/3 8/3/3 23/2/3 27/1/3
f 27/1/3 23/2/3 24/6/3 28/5/3
f 10/8/1 2/7/1 19/32/1 31/23/1
f 31/23/1 19/32/1 20/2/1 32/1/1
f 17/4/5 54/33/5 56/34/5 18/21/5
f 54/33/5 53/31/5 55/9/5 56/34/5
f 3/3/5 34/35/5 54/33/5 17/4/5
f 34/35/5 33/30/5 53/31/5 54/33/5
f 23/36/6 50/37/6 52/38/6 24/39/6
f 50/37/6 49/29/6 51/13/6 52/38/6
f 8/40/6 36/41/6 50/37/6 23/36/6
f 36/41/6 35/26/6 49/29/6 50/37/6
f 12/17/2 11/8/2 47/23/2 45/24/2
f 45/24/2 47/23/2 48/1/2 46/20/2
f 3/18/2 12/17/2 45/24/2 34/25/2
f 34/25/2 45/24/2 46/20/2 33/19/2
f 16/21/4 15/4/4 43/1/4 41/20/4
f 41/20/4 43/1/4 44/5/4 42/16/4
f 5/22/4 16/21/4 41/20/4 38/19/4
f 38/19/4 41/20/4 42/16/4 37/15/4
f 24/39/6 52/38/6 39/42/6 6/43/6
f 52/38/6 51/13/6 40/14/6 39/42/6
f 18/21/5 56/34/5 37/44/5 1/22/5
f 56/34/5 55/9/5 38/12/5 37/44/5
f 15/4/4 6/3/4 39/2/4 43/1/4
f 43/1/4 39/2/4 40/6/4 44/5/4
f 11/8/2 4/7/2 35/32/2 47/23/2
f 47/23/2 35/32/2 36/2/2 48/1/2
