# Blender 4.2.1 LTS
# www.blender.org
mtllib Gun2.mtl
o Cube
v 0.000000 0.240000 -0.400000
v 0.000000 0.470000 -0.400000
v 0.000000 0.010000 0.800000
v 0.000000 0.470000 0.800000
v -0.100000 0.240000 -0.400000
v -0.100000 0.010000 0.800000
v 0.000000 0.100000 0.100000
v 0.000000 0.200000 -0.250000
v 0.000000 0.470000 -0.300000
v 0.000000 0.470000 -0.100000
v -0.100000 0.200000 -0.250000
v -0.100000 0.100000 0.100000
v 0.000000 -0.300000 -0.200000
v 0.000000 -0.260000 -0.400000
v -0.100000 -0.260000 -0.400000
v -0.100000 -0.300000 -0.200000
v 0.000000 -0.020000 -0.100000
v -0.050000 0.070000 -0.200000
v -0.050000 -0.020000 -0.100000
v 0.000000 0.070000 -0.200000
v 0.000000 0.070000 0.050000
v -0.050000 0.070000 0.050000
v -0.050000 0.150000 -0.200000
v 0.000000 0.150000 -0.200000
v -0.100000 0.430000 -0.400000
v -0.075000 0.470000 -0.400000
v -0.075000 0.470000 0.800000
v -0.100000 0.430000 0.800000
v -0.075000 0.470000 -0.100000
v -0.100000 0.430000 0.100000
v -0.100000 0.430000 -0.300000
v -0.075000 0.470000 -0.300000
v 0.000000 0.520000 -0.300000
v 0.000000 0.490000 -0.100000
v -0.050000 0.490000 -0.100000
v -0.050000 0.520000 -0.300000
v 0.100000 0.240000 -0.400000
v 0.100000 0.010000 0.800000
v 0.100000 0.200000 -0.250000
v 0.100000 0.100000 0.100000
v 0.100000 -0.260000 -0.400000
v 0.100000 -0.300000 -0.200000
v 0.050000 0.070000 -0.200000
v 0.050000 -0.020000 -0.100000
v 0.050000 0.070000 0.050000
v 0.050000 0.150000 -0.200000
v 0.100000 0.430000 -0.400000
v 0.075000 0.470000 -0.400000
v 0.075000 0.470000 0.800000
v 0.100000 0.430000 0.800000
v 0.075000 0.470000 -0.100000
v 0.100000 0.430000 0.100000
v 0.100000 0.430000 -0.300000
v 0.075000 0.470000 -0.300000
v 0.050000 0.490000 -0.100000
v 0.050000 0.520000 -0.300000
vn -1.0000 -0.0000 -0.0000
vn -0.0000 -0.0000 -1.0000
vn -0.0000 1.0000 -0.0000
vn -0.0000 -0.9662 -0.2577
vn -0.0000 -0.0000 1.0000
vn -0.0000 -0.9918 -0.1275
vn -0.9893 0.1337 0.0579
vn -0.0000 -0.9806 -0.1961
vn -0.0000 -0.3363 0.9417
vn -0.0000 0.5183 -0.8552
vn -0.0000 -0.8575 0.5145
vn -0.6082 -0.7603 -0.2281
vn -0.0000 -0.7071 -0.7071
vn -0.8480 0.5300 -0.0000
vn -0.0000 0.9889 0.1483
vn -0.8130 0.5807 0.0436
vn 1.0000 -0.0000 -0.0000
vn 0.9893 0.1337 0.0579
vn 0.6082 -0.7603 -0.2281
vn 0.8480 0.5300 -0.0000
vn 0.8130 0.5807 0.0436
vt 0.998492 0.668854
vt 0.998490 0.996770
vt 0.437578 0.996770
vt 0.436191 0.730077
vt 0.620273 0.516732
vt 0.469178 0.516732
vt 0.430868 0.478422
vt 0.430868 0.417266
vt 0.620273 0.417266
vt 0.998502 0.585433
vt 0.998502 0.646590
vt 0.222293 0.646590
vt 0.222293 0.585433
vt 0.859875 0.299390
vt 0.859875 0.398857
vt 0.996741 0.398857
vt 0.996741 0.299390
vt 0.144143 0.799376
vt 0.097843 0.996770
vt 0.002679 0.996770
vt 0.006335 0.836625
vt 0.998494 0.436282
vt 0.623276 0.436282
vt 0.623275 0.497439
vt 0.661582 0.535749
vt 0.998494 0.535749
vt 0.008934 0.003817
vt 0.008934 0.103284
vt 0.569590 0.103284
vt 0.569590 0.003817
vt 0.116203 0.493514
vt 0.101162 0.364333
vt 0.399361 0.337465
vt 0.344203 0.508332
vt 0.269324 0.728508
vt 0.191001 0.727768
vt 0.729494 0.003886
vt 0.729494 0.044956
vt 0.941524 0.045025
vt 0.941524 0.003956
vt 0.115241 0.708698
vt 0.115241 0.670884
vt 0.372154 0.670884
vt 0.372154 0.708698
vt 0.042103 0.708698
vt 0.042103 0.670884
vt 0.627237 0.003817
vt 0.627237 0.044886
vt 0.003689 0.552515
vt 0.032735 0.337848
vt 0.569590 0.365003
vt 0.859875 0.365003
vt 0.833205 0.306605
vt 0.627237 0.306605
vt 0.009797 0.767095
vt 0.009797 0.670884
vt 0.094615 0.206570
vt 0.001493 0.206570
vt 0.001493 0.168260
vt 0.096657 0.168260
vt 0.998502 0.206570
vt 0.222293 0.206570
vt 0.436447 0.168260
vt 0.997453 0.168260
vt 0.094615 0.590642
vt 0.094616 0.651798
vt 0.001493 0.651798
vt 0.001493 0.590642
vt 0.222422 0.616937
vt 0.222422 0.651798
vt 0.094745 0.651798
vt 0.094745 0.616937
vt 0.222293 0.590642
s 0
usemtl Gun
f 6/1/1 28/2/1 30/3/1 12/4/1
f 5/5/2 25/6/2 26/7/2 2/8/2 1/9/2
f 27/10/3 4/11/3 10/12/3 29/13/3
f 8/14/4 11/15/4 5/16/4 1/17/4
f 11/18/1 31/19/1 25/20/1 5/21/1
f 3/22/5 4/23/5 27/24/5 28/25/5 6/26/5
f 3/27/6 6/28/6 12/29/6 7/30/6
f 19/31/7 18/32/7 15/33/7 16/34/7
f 12/4/1 30/3/1 31/19/1 11/18/1
f 9/35/2 32/35/2 36/35/2 33/35/2
f 13/36/8 16/36/8 15/36/8 14/36/8
f 17/37/9 19/38/9 16/39/9 13/40/9
f 18/41/10 20/42/10 14/43/10 15/44/10
f 23/45/2 24/46/2 20/42/2 18/41/2
f 21/47/11 22/48/11 19/38/11 17/37/11
f 22/49/1 23/50/1 18/32/1 19/31/1
f 12/51/12 11/52/12 23/53/12 22/54/12
f 7/30/11 12/29/11 22/48/11 21/47/11
f 11/55/13 8/56/13 24/46/13 23/45/13
f 32/57/14 26/58/14 25/59/14 31/60/14
f 27/61/14 29/62/14 30/63/14 28/64/14
f 29/62/14 32/57/14 31/60/14 30/63/14
f 32/65/3 9/66/3 2/67/3 26/68/3
f 35/69/15 34/70/15 33/71/15 36/72/15
f 32/65/16 29/73/16 35/69/16 36/72/16
f 29/35/5 10/35/5 34/35/5 35/35/5
f 38/1/17 40/4/17 52/3/17 50/2/17
f 37/5/2 1/9/2 2/8/2 48/7/2 47/6/2
f 49/10/3 51/13/3 10/12/3 4/11/3
f 8/14/4 1/17/4 37/16/4 39/15/4
f 39/18/17 37/21/17 47/20/17 53/19/17
f 3/22/5 38/26/5 50/25/5 49/24/5 4/23/5
f 3/27/6 7/30/6 40/29/6 38/28/6
f 44/31/18 42/34/18 41/33/18 43/32/18
f 40/4/17 39/18/17 53/19/17 52/3/17
f 9/35/2 33/35/2 56/35/2 54/35/2
f 13/36/8 14/36/8 41/36/8 42/36/8
f 17/37/9 13/40/9 42/39/9 44/38/9
f 43/41/10 41/44/10 14/43/10 20/42/10
f 46/45/2 43/41/2 20/42/2 24/46/2
f 21/47/11 17/37/11 44/38/11 45/48/11
f 45/49/17 44/31/17 43/32/17 46/50/17
f 40/51/19 45/54/19 46/53/19 39/52/19
f 7/30/11 21/47/11 45/48/11 40/29/11
f 39/55/13 46/45/13 24/46/13 8/56/13
f 54/57/20 53/60/20 47/59/20 48/58/20
f 49/61/20 50/64/20 52/63/20 51/62/20
f 51/62/20 52/63/20 53/60/20 54/57/20
f 54/65/3 48/68/3 2/67/3 9/66/3
f 55/69/15 56/72/15 33/71/15 34/70/15
f 54/65/21 56/72/21 55/69/21 51/73/21
f 51/35/5 55/35/5 34/35/5 10/35/5
